<?xml version="1.0" standalone="no"?><!DOCTYPE svg PUBLIC "-//W3C//DTD SVG 1.1//EN" "http://www.w3.org/Graphics/SVG/1.1/DTD/svg11.dtd"><svg class="icon" width="16px" height="16.00px" viewBox="0 0 1024 1024" version="1.1" xmlns="http://www.w3.org/2000/svg"><path d="M480 597.333333V384a32.213333 32.213333 0 0 1 32-32 32.213333 32.213333 0 0 1 32 32v213.333333a32.213333 32.213333 0 0 1-32 32 32.213333 32.213333 0 0 1-32-32z"  /><path d="M503.466667 767.146667a27.136 27.136 0 0 1-7.68-2.56 32.298667 32.298667 0 0 1-7.68-3.84l-6.4-5.12a44.885333 44.885333 0 0 1-12.373334-30.378667 44.885333 44.885333 0 0 1 12.373334-30.165333l6.4-5.162667a32.298667 32.298667 0 0 1 7.68-3.84 27.136 27.136 0 0 1 7.68-2.56 36.522667 36.522667 0 0 1 16.64 0 25.6 25.6 0 0 1 8.106666 2.56 32.298667 32.298667 0 0 1 7.68 3.84l6.4 5.12a44.885333 44.885333 0 0 1 12.373334 30.208 44.885333 44.885333 0 0 1-12.373334 30.293333l-6.4 5.12a32.298667 32.298667 0 0 1-7.68 3.84 25.6 25.6 0 0 1-8.106666 2.56 52.266667 52.266667 0 0 1-8.106667 0.853334 64 64 0 0 1-8.533333-0.768z"  /><path d="M770.56 945.493333H253.610667a196.565333 196.565333 0 0 1-179.2-84.906666 196.266667 196.266667 0 0 1 12.8-197.973334l258.56-465.066666c42.666667-76.8 101.717333-119.04 166.4-119.04s123.733333 42.282667 166.4 119.04l258.56 465.493333a195.797333 195.797333 0 0 1 12.8 197.973333 196.992 196.992 0 0 1-179.370667 84.48zM512 142.506667c-40.021333 0-79.274667 30.592-110.464 86.186666L143.36 694.186667a136.533333 136.533333 0 0 0-13.482667 134.4 135.296 135.296 0 0 0 124.16 53.333333h517.12a136.234667 136.234667 0 0 0 124.16-53.333333 135.978667 135.978667 0 0 0-13.610666-134.4L622.506667 228.693333c-31.189333-55.552-70.442667-86.186667-110.506667-86.186666z"  /></svg>