<svg t="1667719522300" viewBox="0 0 1024 1024" version="1.1" xmlns="http://www.w3.org/2000/svg" p-id="10156" xmlns:xlink="http://www.w3.org/1999/xlink"><path d="M671.744 789.504q0 11.264-6.656 20.48t-18.944 9.216l-243.712-1.024q-11.264 1.024-17.92-9.216t-6.656-19.456q0-8.192 6.144-18.432t18.432-10.24l75.776 0 0-64.512-340.992 0q-33.792 0-54.784-18.944t-20.992-51.712l0-508.928q0-32.768 19.968-49.152t52.736-16.384l755.712 0q32.768 0 52.224 17.92t19.456 47.616l0 508.928q0 31.744-17.92 49.664t-53.76 17.92l-318.464 0 0 68.608 73.728 0q11.264 0 18.944 8.704t7.68 18.944zM890.88 163.84l-768 0 0 359.424 768 0 0-359.424zM566.272 566.272l-87.04 0 0 77.824 87.04 0 0-77.824z" p-id="10157"></path></svg>