<?xml version="1.0" standalone="no"?><!DOCTYPE svg PUBLIC "-//W3C//DTD SVG 1.1//EN" "http://www.w3.org/Graphics/SVG/1.1/DTD/svg11.dtd"><svg t="1667724320864" class="icon" viewBox="0 0 1024 1024" version="1.1" xmlns="http://www.w3.org/2000/svg" p-id="8681" xmlns:xlink="http://www.w3.org/1999/xlink" width="200" height="200"><path d="M362.96704 368.06656l-192.9216 262.144 432.4352 119.74656-33.25952-337.98144z" fill="#CD8A22" p-id="8682"></path><path d="M692.96128 346.78784l-123.74016 65.18784 33.25952 337.98144 251.47392-163.65568z" fill="#D0BF4B" p-id="8683"></path><path d="M362.96704 368.06656l149.9136-56.32 180.08064 35.04128-123.74016 65.18784z" fill="#F5500E" p-id="8684"></path><path d="M170.04544 630.21056l192.9216 230.17472L569.22112 921.6l33.25952-171.64288z" fill="#C07E10" p-id="8685"></path><path d="M853.95456 586.30144l-155.66848 240.82432L569.22112 921.6l33.25952-171.64288z" fill="#B06E10" p-id="8686"></path><path d="M365.64992 115.712l61.19424 244.81792 230.64576-8.86784L701.8496 127.24224l-87.81824 99.34848L562.56512 102.4l-57.6512 125.07136z" fill="#1F5C0E" p-id="8687"></path><path d="M362.96704 368.06656l-50.54464-190.27968s119.74656 126.40256 121.07776 122.40896c1.3312-3.9936 18.6368-111.75936 18.6368-111.75936l74.50624 115.75296 61.21472-105.12384-18.6368 212.8896-206.25408-43.88864z" fill="#2E842B" p-id="8688"></path><path d="M692.96128 346.78784l-123.74016 65.18784 18.6368-212.8896 48.3328 95.80544 125.97248-111.32928z" fill="#22B475" p-id="8689"></path><path d="M316.416 467.53792l43.90912-12.86144 42.12736 39.03488-35.04128-66.08896zM398.0288 451.13344l43.90912-12.86144 42.12736 39.0144-35.04128-66.06848zM468.54144 504.79104l43.90912-12.86144 42.14784 39.03488-35.04128-66.08896zM370.0736 524.71808l48.88576-15.27808 46.91968 46.36672-39.0144-78.52032zM302.22336 558.42816l48.88576-15.27808 46.91968 46.36672-39.0144-78.52032z" fill="#B9760B" p-id="8690"></path><path d="M417.97632 595.68128l48.88576-15.27808 46.91968 46.36672-39.0144-78.52032zM347.89376 635.57632l53.88288-16.4864 51.69152 50.03264-42.98752-84.72576zM226.816 601.41568l53.8624-16.4864 51.69152 50.03264-42.96704-84.70528zM463.6672 673.28l53.8624-16.4864 51.69152 50.03264-42.98752-84.72576z" fill="#B9760B" p-id="8691"></path><path d="M333.04576 738.97984l15.29856-41.24672 56.54528 65.18784-51.87584-38.4zM422.85056 767.5904l15.31904-41.24672 56.54528 65.18784-53.22752-37.5808zM396.92288 814.34624l15.29856-41.24672 56.54528 65.18784-52.87936-39.23968zM371.63008 846.92992l15.29856-41.24672 56.54528 65.20832-50.54464-39.58784zM480.74752 832.77824l15.29856-41.24672 56.54528 65.20832-50.54464-36.74112zM454.79936 879.53408l15.29856-41.24672 56.54528 65.20832-50.8928-36.59776zM319.73376 784.60928l13.47584-36.31104 49.78688 57.38496-46.61248-36.2496z" fill="#A65901" p-id="8692"></path><path d="M615.36256 469.01248l-9.29792 70.67648 19.51744-44.78976 29.26592 12.26752zM647.74144 409.21088l-9.29792 70.67648 19.51744-44.78976 29.26592 12.26752zM676.57728 474.4192l-9.3184 70.67648 19.51744-44.81024 29.2864 12.26752zM700.96896 411.50464l-9.3184 70.67648 19.51744-44.78976 29.2864 12.26752zM719.60576 504.36096l-9.3184 70.656 19.51744-44.78976 29.26592 12.26752zM658.39104 550.93248l-9.3184 70.656 19.51744-44.78976 29.2864 12.26752zM642.3552 618.86464l-11.01824 83.51744 23.06048-52.9408 34.59072 14.49984zM702.6688 572.33408l-11.01824 83.51744 23.08096-52.9408 34.59072 14.49984zM770.4576 534.75328l-10.99776 83.51744 23.06048-52.9408 34.59072 14.49984z" fill="#D79824" p-id="8693"></path><path d="M676.80256 727.9616l-44.78976 63.42656 36.352-39.54688 8.43776 5.8368zM676.80256 766.8736l-44.78976 63.42656 36.352-39.54688 8.43776 5.8368zM676.80256 801.91488l-44.78976 63.42656 36.352-39.54688 8.43776 5.8368zM625.3568 804.57728l-44.81024 63.42656 36.37248-39.54688 8.43776 5.8368zM627.56864 840.06912l-44.78976 63.42656 36.37248-39.54688 8.41728 5.8368zM729.12896 685.71136l-44.78976 63.42656 36.37248-39.54688 8.41728 5.8368zM724.25472 735.17056l-44.78976 63.42656 36.37248-39.54688 8.41728 5.8368z" fill="#AD6004" p-id="8694"></path></svg>